PathFileType	4	(X/Y/Z)	C:\Users\°ÂÌØÂü\Desktop\20210112\bx_n_10_501-Unnamed.trc
DataRate	CameraRate	NumFrames	NumMarkers	Units	OrigDataRate	OrigDataStartFrame	OrigNumFrames
50.00	50.00	       6	0	mm	50.00	110	       436
Frame#	Time	
		

110	2.180	-179.09654	139.79466	1381.17505	-413.42102	282.67523	1180.93835	-777.65863	232.55313	1011.58112	-799.70313	142.79996	571.75659	-760.17230	-8.00954	808.27203	-849.08844	279.17462	728.66333	-851.22955	253.01164	624.90436	-834.50201	248.40363	563.66718	-772.10150	205.09174	536.90997	-854.17194	262.63663	483.88406	-517.91553	-72.70594	142.77255	-549.98541	-27.41176	162.46588	-793.25110	34.86578	175.06261	-776.94287	-10.38606	992.04083	-598.51318	26.78090	166.40083	-673.42157	51.01097	162.24001	-720.44312	157.27420	223.51225	-798.29321	181.15277	183.51952	-772.43756	230.40347	203.35007	-593.92181	218.98921	172.69470	-882.65533	295.94305	144.50027	-557.48615	254.31975	163.57150	-660.03302	298.30609	156.81355	-623.52850	306.65140	158.51184	-527.88629	304.01523	146.29546	-380.50742	-43.99676	1192.50757	-953.16382	89.27044	1091.15479	-834.49786	-51.36234	474.12787	-761.75897	-23.87267	205.15442	-875.70392	-78.69103	141.07449	-849.55621	-79.27516	861.38043	-766.06061	206.67885	814.63922	-726.39203	65.56794	221.19125				-799.21381	72.17158	570.21753	-676.59344	174.73676	162.36015	-606.68683	-75.85021	156.18509	-647.96228	-68.34631	161.45335				-873.68695	285.74084	862.93811	-754.36841	16.06661	527.59863				-841.60510	-67.52808	745.52106	-818.77002	-38.45114	608.93427	-814.18030	-36.17871	561.48187	
111	2.200	-179.52710	139.53206	1382.62085	-414.20212	282.82629	1182.63953	-777.65863	232.55313	1011.58112	-799.82526	142.95560	572.05975	-759.78833	-7.93327	809.03180	-849.15540	279.11539	728.82062	-851.07556	252.84546	625.16895	-834.34357	248.32220	563.94318	-772.26563	204.93109	536.96509	-854.11682	262.39063	484.08023	-517.92334	-72.68365	142.67542	-549.75330	-27.44605	162.52782	-793.43414	34.56921	175.67085	-776.89746	-10.23590	992.19495	-598.37085	26.60969	166.38068	-673.32196	50.95753	162.39645	-720.25500	157.72231	223.86673	-798.52368	181.44647	183.54825	-772.16205	230.36604	203.98932	-593.66937	219.13319	172.98985	-882.64282	295.84033	144.43773	-557.48615	254.31975	163.57150	-659.91229	298.05057	156.93994	-623.37256	306.70474	158.51904	-527.96191	304.06088	146.35727	-380.70554	-44.15987	1193.46118	-953.22467	89.17222	1091.26599	-833.86438	-51.38335	474.68423	-761.44031	-23.82537	205.48679	-875.86145	-78.67005	141.04742	-848.96387	-79.23383	861.84363	-766.18024	206.46762	814.95532	-726.28778	65.37359	221.63371				-798.64130	71.74890	570.72742	-676.60706	174.45888	162.35847	-606.62512	-75.87450	156.27939	-647.76599	-68.22943	161.64514				-873.98724	285.60324	863.34235	-754.01343	15.84299	527.99091				-841.15173	-67.36779	746.08215	-818.74084	-38.37497	609.00867	-814.01288	-36.09708	561.87280	
112	2.220	-180.22417	140.02309	1384.50330	-415.13718	283.34854	1183.85547	-777.78809	232.43510	1011.79364	-799.79749	142.78267	572.46832	-759.57751	-8.10261	809.66705	-848.92511	278.65921	729.07397	-850.93567	252.31001	625.51318	-834.41058	247.97832	563.77863	-772.05597	205.13608	537.81494	-853.90027	261.96506	484.23248	-517.94318	-72.77501	142.80957	-549.88226	-27.36960	162.50087	-793.02264	34.55220	175.42003	-776.31635	-10.67941	992.76599	-598.37085	26.60969	166.38068	-672.94098	51.02325	162.70625	-720.17578	157.34946	224.11108	-798.25598	181.51837	183.66164	-772.37616	230.08331	204.23763	-593.49841	219.10760	172.92755	-882.68109	295.95032	144.43883	-557.46130	254.24092	163.50195	-659.60645	298.29578	157.19742	-623.30463	306.61044	158.46159	-527.94104	304.13431	146.32643	-382.03568	-43.65409	1194.56885	-953.30823	89.07207	1091.44482	-833.75812	-51.20990	474.91391	-761.28473	-23.92542	205.67677	-875.85522	-78.73365	141.22168	-848.82104	-79.53292	862.30402	-766.21411	206.52296	815.08777	-726.37732	65.26022	222.04385				-798.33917	71.59172	571.32397	-676.25555	175.16328	162.78746	-606.47559	-75.62041	156.43152	-647.73907	-68.07719	161.78351				-874.09924	285.26553	863.40997	-753.73236	15.54218	528.35339				-840.79315	-67.34189	746.46973	-818.55469	-39.08399	610.12134	-813.95148	-36.45537	562.25781	
113	2.240	-180.86337	140.01122	1386.57227				-777.76013	232.28358	1011.93689	-799.25189	142.44534	572.74200	-759.65399	-8.14587	809.98132	-848.75775	278.14587	729.41113	-851.11334	252.22664	625.55884	-834.69580	247.88541	564.15839	-772.22894	204.94122	537.82703	-853.86548	261.52356	484.40808	-518.02960	-72.56537	142.49007	-549.94336	-27.46771	162.49760	-792.93250	34.72247	175.96164	-775.98779	-10.74200	992.96747	-598.32788	26.67813	166.42276	-673.01556	50.87652	162.67303	-719.94427	157.55832	224.04181	-798.20367	181.62779	183.85129	-772.22235	230.12064	204.32683	-593.57788	219.07817	173.00568	-882.81061	296.08228	144.57700	-557.37384	254.45564	163.74507	-659.35828	298.13049	157.15025	-623.18738	306.56180	158.43066	-527.95465	304.19025	146.35089	-382.97055	-43.69099	1195.83032	-952.97583	89.00107	1091.66504	-833.66840	-51.44014	475.25751	-761.28503	-23.93527	206.07368	-875.85522	-78.73365	141.22168	-848.70386	-79.61022	862.37781	-765.78809	206.33734	815.36078	-726.19183	65.17262	222.11363				-798.37366	71.48917	571.33118	-676.46082	174.88107	163.15372	-606.49298	-75.59692	156.46039	-647.73907	-68.07719	161.78351				-873.82574	284.96783	863.49066	-753.74164	15.45320	528.47290				-840.53107	-67.60426	746.63525	-818.39667	-39.24181	610.38403	-813.59137	-36.63380	562.47626	
114	2.260	-181.81413	140.18994	1388.18079	-417.06689	283.51553	1187.16125	-777.61230	232.38463	1012.33533	-799.25189	142.44534	572.74200	-759.18524	-8.42087	810.08636	-848.57635	277.85770	729.70129	-851.10602	252.27420	625.94550	-834.42426	247.61749	564.15515	-771.93524	205.22816	538.29059	-853.64014	261.44156	484.73688	-517.86188	-72.52998	142.78822	-549.67401	-27.48435	162.56415	-792.80591	34.53010	176.15620	-775.83966	-10.76902	993.23053	-598.33344	26.56404	166.27945	-673.01556	50.87652	162.67303	-720.03253	157.34587	223.90192	-798.15485	181.49483	183.76997	-772.25983	229.94620	204.48836	-593.49481	219.06329	173.10620	-882.72351	296.04178	144.50246	-557.39404	254.24586	163.55592	-659.31476	297.92703	157.33922	-623.25580	306.59241	158.55435	-528.01398	304.09464	146.27768	-383.72504	-43.44445	1197.15381	-952.74384	88.57226	1091.66821	-833.26929	-51.34724	475.55255	-760.95239	-24.31974	206.38312	-875.87671	-78.61211	140.98958	-847.99963	-80.06397	862.82208	-765.57507	206.23486	815.55188	-726.24915	65.33413	221.97983				-798.31427	71.43344	571.43091	-676.23547	174.92856	163.05588	-606.25061	-75.65301	156.62396	-647.43488	-67.90988	162.02328				-873.68817	284.31491	863.48425	-753.32648	15.62134	528.71802				-840.22980	-67.85158	746.94037	-818.10425	-39.40157	610.63434	-813.11945	-36.42408	562.73175	
115	2.280	-182.34628	140.34741	1390.37939	-418.41797	284.16891	1189.59961	-776.60730	233.45667	1013.47394	-799.10394	142.21568	572.81824	-758.48920	-8.65437	810.18616	-848.58612	277.79156	729.72119	-851.02081	252.25952	626.18787	-834.51154	247.40546	564.21783	-771.83160	204.64857	537.95764	-854.03290	261.12790	484.95074	-518.04657	-72.68954	142.54019	-549.83264	-27.34149	162.38695	-792.65662	34.57049	175.92682	-775.43030	-10.93617	993.37463	-598.42157	26.65568	166.46315	-673.01556	50.87652	162.67303	-720.05914	157.29317	224.23933	-798.51251	181.30815	183.89305	-772.17072	230.03868	204.47998	-593.55243	218.99585	172.88875	-882.69092	296.08911	144.60110	-557.36664	254.69464	163.74080	-659.39337	298.00229	157.29701	-623.35645	306.23178	158.32617	-527.97351	303.81757	146.37526	-384.95157	-43.73975	1199.32910	-952.78479	88.33772	1091.55737	-832.73163	-51.31896	475.53986	-760.76422	-24.47621	206.29137	-875.72125	-78.53790	141.00470	-847.99963	-80.06397	862.82208	-764.94873	206.22705	815.74341	-726.34430	65.58772	221.77571				-798.21454	71.41795	571.56073	-675.69592	174.98393	162.94479	-605.97803	-75.49392	156.30801	-647.51978	-67.98892	162.20322				-873.41980	284.26505	863.60706	-752.91565	15.17710	528.99097				-839.81427	-67.99805	746.98492	-817.65729	-39.36979	610.36041	-812.58539	-36.60368	562.57037	
